<?xml version="1.0" encoding="iso-8859-1"?>
<!-- Generator: Adobe Illustrator 18.1.1, SVG Export Plug-In . SVG Version: 6.00 Build 0)  -->
<svg version="1.1" id="Capa_1" xmlns="http://www.w3.org/2000/svg" xmlns:xlink="http://www.w3.org/1999/xlink" x="0px" y="0px"
	 viewBox="0 0 425 425" style="enable-background:new 0 0 425 425;" xml:space="preserve">
<g>
	<g>
		<path d="M212.358,0c-9.35,0-17,7.65-17,17v346.233l-110.5-124.1c-6.233-7.083-17-7.65-24.083-1.417s-7.65,17-1.417,24.083
			l139.117,155.833c3.117,4.533,8.217,7.367,13.883,7.367l0,0l0,0c4.817,0,9.35-1.983,12.75-5.667L365.642,261.8
			c6.233-7.083,5.667-17.85-1.417-24.083c-7.083-6.233-17.85-5.667-24.083,1.417L229.358,363.517V17
			C229.358,7.65,221.708,0,212.358,0z"/>
	</g>
</g>
<g>
</g>
<g>
</g>
<g>
</g>
<g>
</g>
<g>
</g>
<g>
</g>
<g>
</g>
<g>
</g>
<g>
</g>
<g>
</g>
<g>
</g>
<g>
</g>
<g>
</g>
<g>
</g>
<g>
</g>
</svg>
